<?xml version="1.0" standalone="no"?>
<!DOCTYPE svg PUBLIC "-//W3C//DTD SVG 20010904//EN"
 "http://www.w3.org/TR/2001/REC-SVG-20010904/DTD/svg10.dtd">
<svg version="1.0" xmlns="http://www.w3.org/2000/svg"
 width="449.000000pt" height="69.000000pt" viewBox="0 0 449.000000 69.000000"
 preserveAspectRatio="xMidYMid meet">

<g transform="translate(0.000000,69.000000) scale(0.100000,-0.100000)"
fill="#000000" stroke="none">
<path d="M152 348 l3 -223 236 -3 236 -2 6 82 c9 105 9 331 1 352 -5 14 -36
16 -245 16 l-239 0 2 -222z m466 172 l3 -30 -220 0 c-121 0 -222 3 -224 8 -3
4 -3 18 0 32 l4 25 217 -2 217 -2 3 -31z m0 -213 c2 -137 0 -168 -12 -173 -7
-3 -108 -2 -222 3 l-209 8 -3 155 c-1 85 0 160 2 166 4 9 60 12 223 11 l218
-2 3 -168z"/>
<path d="M306 354 c-15 -39 -3 -94 21 -94 11 0 14 6 9 23 -3 12 -6 37 -6 55 0
34 -14 43 -24 16z"/>
<path d="M461 338 c1 -18 -2 -44 -6 -57 -7 -19 -5 -22 11 -19 21 4 35 54 23
86 -12 33 -29 26 -28 -10z"/>
</g>
</svg>
